<?xml version="1.0" encoding="UTF-8"?>
<svg id="Layer_2" xmlns="http://www.w3.org/2000/svg" version="1.1" viewBox="0 0 2432.6 514.4">
  <!-- Generator: Adobe Illustrator 29.6.1, SVG Export Plug-In . SVG Version: 2.1.1 Build 9)  -->
  <defs>
    <style>
      .st0 {
        fill: none;
      }
    </style>
  </defs>
  <g>
    <path d="M122,115.2C28.5,120.6-4,209.7.4,296.3c4.3,85.3,69.2,100.5,138.5,92.6,21.8-2.5,44.6-8.2,65-16.7l7.8-64.9c-8.4,3.3-17,6.8-25.8,9.3-23.2,6.5-75.1,13.1-96.3,1.3-13.9-7.7-13.5-22.7-11.8-37.1,1-.6,2.1-.7,3.2-.8,21.5-1.7,43.2,1.4,65.1-1.3,42.6-5.4,78.7-24.7,87.6-72,15.3-81-50.3-95.2-111.7-91.7ZM155.8,207.5c-2.5,10.5-14.9,21.5-25.3,21.5h-46.2c1.2-20.2,10.1-42.8,30-49.1,19.9-6.3,48.2-.2,41.5,27.6Z"/>
    <path d="M457.9,198.6c-18.2-8.1-37.9-13.7-57.6-15.8-13.4-1.4-43.2-3.2-53.1,7.6-5.7,6.1-6.9,18.9.9,23.8,8,5,35.4,6,46.6,8.1,43.5,8.2,65.6,23.4,62.7,73.5-5.1,88.3-90.3,101.2-158.4,93.2-18.6-2.2-36.7-7.2-54-14.6l8.1-70.1c12.7,5.3,25.6,10.2,39,13.5,18.9,4.6,63.4,11.5,79.5-.6,7.3-5.4,10-18.8,2.1-24.9-7.2-5.6-35.1-6.5-45.7-8.4-30.6-5.5-62.1-16.8-64.5-54.5-3.7-57.9,24.8-97.8,78.5-110,31.3-7.1,84.8-6.3,115,5.4,2.4.9,8.6,2.7,8.8,5.4l-7.9,68.6Z"/>
    <path d="M587.1,125.3l-21.2,180.5c-.7,14.7,7.3,14.2,18.7,15.8l-8.1,66.7c-.3.5-9.4,1.7-10.9,1.8-45.3,4.4-84.1-14.8-81.2-68l22.9-196.9h79.7Z"/>
    <path d="M551.4.3c64.1-6.5,71.2,94,9.5,99.1-63.7,5.2-69.7-92.9-9.5-99.1Z"/>
    <path class="st0" d="M551.4,415.7c64.1-6.5,71.2,94,9.5,99.1-63.7,5.2-69.7-92.9-9.5-99.1Z"/>
  </g>
  <g>
    <path d="M790.1,388.3h-29.9l-98.4-203.1-22,203.1h-29.9l27.7-255.5h29.9l98.4,202.8,22-202.8h29.9l-27.7,255.5Z"/>
    <path d="M999,133.2l-2.9,27.1h-62.5l-24.7,228h-29.9l24.7-228h-62.8l2.9-27.1h155.3Z"/>
    <path d="M1052,160.2l-9.2,85.3h83.6l-3,27.5h-83.6l-9.5,87.8h93.4l-3,27.5h-123.4l27.7-255.5h123.4l-3,27.5h-93.4Z"/>
    <path d="M1276,388.3l-43.3-104.3h-36.2l-11.3,104.3h-29.9l27.7-255.1h74c17.3,0,31.6,3.3,42.8,9.9,11.2,6.6,19.2,15.5,23.9,26.7,4.7,11.2,6.3,24,4.7,38.4-1.9,17.6-8.1,33.1-18.7,46.5-10.6,13.4-25.2,22.3-43.9,26.7l46,106.9h-35.9ZM1199.4,257.2h44.1c16.2,0,28.9-4.4,38-13.4,9.1-8.9,14.4-20.8,16-35.7,1.6-15.1-1.1-26.8-8.2-35.1-7.1-8.3-18.9-12.4-35.3-12.4h-44.1l-10.5,96.6Z"/>
    <path d="M1486.1,331.5h-100l-24.6,56.7h-31.6l110.4-253.6h34.5l55.1,253.6h-31.6l-12.3-56.7ZM1480.5,304.4l-27.5-128.8-55.4,128.8h82.9Z"/>
    <path d="M1580.4,193.4c12.2-19.9,27.7-35.4,46.3-46.7,18.7-11.2,38.6-16.8,59.9-16.8s46.1,6.7,63.3,20.1c17.2,13.4,28.7,32.5,34.6,57.1h-35.9c-4.7-15.4-12.6-27.2-23.6-35.5-11.1-8.3-24.9-12.4-41.6-12.4s-30.8,4.2-44.4,12.4c-13.6,8.3-24.9,20.1-33.8,35.3-8.9,15.3-14.4,33.1-16.7,53.6-2.2,20.3-.5,38,5.1,53.3,5.6,15.3,14.3,27,26.1,35.3,11.8,8.3,25.7,12.4,41.7,12.4s31.4-4.1,44.3-12.3c12.8-8.2,23.3-19.9,31.3-35.3h35.9c-11.2,24.4-26.8,43.3-46.9,56.5-20.1,13.3-42.6,19.9-67.6,19.9s-40-5.5-56.3-16.7c-16.2-11.1-28.3-26.5-36.3-46.3-7.9-19.8-10.6-42.1-7.9-67,2.7-24.9,10.2-47.3,22.4-67.2Z"/>
    <path d="M1967.2,133.2l-2.9,27.1h-62.5l-24.7,228h-29.9l24.7-228h-62.8l2.9-27.1h155.3Z"/>
    <path d="M2023.1,133.2l-27.7,255.1h-29.9l27.7-255.1h29.9Z"/>
    <path d="M2252.7,133.2l-114.2,255.1h-34.5l-58.9-255.1h31.9l48.2,220,95.9-220h31.6Z"/>
    <path d="M2388.8,331.5h-100l-24.6,56.7h-31.6l110.4-253.6h34.5l55.1,253.6h-31.6l-12.3-56.7ZM2383.2,304.4l-27.5-128.8-55.4,128.8h82.9Z"/>
  </g>
</svg>